<?xml version="1.0" standalone="no"?><!DOCTYPE svg PUBLIC "-//W3C//DTD SVG 1.1//EN" "http://www.w3.org/Graphics/SVG/1.1/DTD/svg11.dtd"><svg t="1743993208991" class="icon" viewBox="0 0 2168 1024" version="1.1" xmlns="http://www.w3.org/2000/svg" p-id="1955" xmlns:xlink="http://www.w3.org/1999/xlink" width="423.4375" height="200"><path d="M260.156235 1024H0v-157.184h260.156235zM843.083294 866.243765h180.766118v157.214117H898.108235zM358.912 0.090353h349.786353v104.508235H353.430588z" fill="#e43d27" p-id="1956"></path><path d="M1023.608471 104.508235h-232.658824V0h232.658824z" fill="#e43d27" p-id="1957"></path><path d="M1023.638588 531.124706h-259.373176v-104.508235h259.373176z" fill="#e43d27" p-id="1958"></path><path d="M902.505412 1024V0.662588h121.072941V1024zM344.786824 286.177882H700.837647v104.538353H340.028235zM331.414588 572.295529h377.283765v104.508236H326.686118zM552.267294 866.243765h156.431059v157.214117h-126.554353zM305.483294 866.243765h156.400941v157.214117h-126.554353z" fill="#e43d27" p-id="1959"></path><path d="M762.910118 0.090353l-49.513412 1023.337412h-110.019765V0.090353zM891.813647 0.090353l-54.211765 1023.337412H736.978824L786.492235 0.090353zM560.911059 0.090353l-22.799059 1023.337412h-174.471529L450.861176 0.090353zM330.631529 0.090353L283.467294 1023.427765H173.417412L220.581647 0.090353z" fill="#e43d27" p-id="1960"></path><path d="M300.754824 0.090353L109.778824 866.243765H0.512L190.735059 0.090353zM156.129882 0.090353L0.512 742.851765V0.090353z" fill="#e43d27" p-id="1961"></path><path d="M1556.781176 0.090353h565.880471l-23.582118 157.214118H1548.107294zM1535.548235 433.152h521.09553l-24.395294 157.214118H1528.470588zM1626.714353 918.889412h355.267765l-16.504471 104.538353H1621.985882z" fill="#e43d27" p-id="1962"></path><path d="M1894.701176 0.090353l-153.238588 1023.337412h-232.658823L1757.967059 0.090353zM1383.454118 1024h-260.156236v-157.214118h260.156236z" fill="#e43d27" p-id="1963"></path><path d="M1532.385882 0.090353l-47.947294 1023.337412h-129.686588L1401.916235 0.090353z" fill="#e43d27" p-id="1964"></path><path d="M1423.149176 0.090353l-190.223058 866.153412h-110.019765L1313.882353 0.090353zM1279.307294 0.090353l-156.400941 742.761412V0.090353zM1990.625882 1023.427765L2146.243765 0.090353v1023.337412z" fill="#e43d27" p-id="1965"></path></svg>